<svg width="340" height="650" viewBox="0 0 340 650" fill="none" xmlns="http://www.w3.org/2000/svg">
<g clip-path="url(#clip0_105_1175)">
<rect width="340" height="650" fill="white"/>
<ellipse cx="234" cy="555.5" rx="177" ry="164.5" fill="#00964F"/>
<ellipse cx="57" cy="83" rx="129" ry="120" fill="#D22A2A"/>
<ellipse cx="312.5" cy="100" rx="53.5" ry="55" fill="#2A4B9C"/>
<ellipse cx="21.5" cy="438.5" rx="46.5" ry="47.5" fill="#FDC731"/>
<path d="M47.8033 242.48H49.9393C51.6353 242.48 52.9233 241.96 53.8033 240.92C54.6833 239.864 55.1233 238.456 55.1233 236.696C55.1233 235.144 54.6513 233.872 53.7073 232.88C52.7793 231.872 51.5073 231.368 49.8913 231.368H47.8033V242.48ZM44.7073 228.824H49.9873C52.4033 228.824 54.3793 229.568 55.9153 231.056C57.4513 232.544 58.2193 234.424 58.2193 236.696C58.2193 239.176 57.4753 241.184 55.9873 242.72C54.4993 244.24 52.4993 245 49.9873 245H44.7073V228.824ZM60.9027 245V232.832H63.7827V245H60.9027ZM60.6147 229.184C60.6147 228.704 60.7827 228.296 61.1187 227.96C61.4547 227.624 61.8627 227.456 62.3427 227.456C62.8227 227.456 63.2307 227.624 63.5667 227.96C63.9027 228.296 64.0707 228.704 64.0707 229.184C64.0707 229.68 63.9027 230.096 63.5667 230.432C63.2307 230.768 62.8227 230.936 62.3427 230.936C61.8627 230.936 61.4547 230.768 61.1187 230.432C60.7827 230.096 60.6147 229.68 60.6147 229.184ZM72.105 242.264C72.889 242.264 73.545 241.96 74.073 241.352C74.601 240.728 74.865 239.92 74.865 238.928C74.865 237.632 74.609 236.68 74.097 236.072C73.585 235.464 72.937 235.16 72.153 235.16C71.321 235.16 70.665 235.488 70.185 236.144C69.705 236.784 69.465 237.656 69.465 238.76C69.465 239.896 69.713 240.768 70.209 241.376C70.705 241.968 71.337 242.264 72.105 242.264ZM74.865 232.832H77.745V243.896C77.745 245.816 77.185 247.256 76.065 248.216C74.961 249.192 73.553 249.68 71.841 249.68C70.241 249.68 68.841 249.392 67.641 248.816V245.888C68.729 246.656 70.033 247.04 71.553 247.04C73.761 247.04 74.865 245.984 74.865 243.872V242.816C74.129 244.016 72.977 244.616 71.409 244.616C70.049 244.616 68.881 244.12 67.905 243.128C66.945 242.12 66.465 240.664 66.465 238.76C66.465 237 66.921 235.552 67.833 234.416C68.761 233.264 69.977 232.688 71.481 232.688C73.001 232.688 74.129 233.32 74.865 234.584V232.832ZM80.848 245V232.832H83.728V245H80.848ZM80.56 229.184C80.56 228.704 80.728 228.296 81.064 227.96C81.4 227.624 81.808 227.456 82.288 227.456C82.768 227.456 83.176 227.624 83.512 227.96C83.848 228.296 84.016 228.704 84.016 229.184C84.016 229.68 83.848 230.096 83.512 230.432C83.176 230.768 82.768 230.936 82.288 230.936C81.808 230.936 81.4 230.768 81.064 230.432C80.728 230.096 80.56 229.68 80.56 229.184ZM90.4663 234.992V241.184C90.4663 241.696 90.6023 242.088 90.8743 242.36C91.1463 242.616 91.5223 242.744 92.0023 242.744C92.6103 242.744 93.1703 242.576 93.6823 242.24V244.712C93.1223 244.984 92.4023 245.12 91.5223 245.12C88.8983 245.12 87.5863 243.792 87.5863 241.136V234.992H85.7623V232.832H87.5863V229.904H90.4663V232.832H93.4903V234.992H90.4663ZM103.376 237.92V237.56C103.344 236.776 103.128 236.152 102.728 235.688C102.344 235.208 101.776 234.968 101.024 234.968C100.336 234.968 99.7361 235.224 99.2241 235.736C98.7281 236.232 98.4081 236.96 98.2641 237.92H103.376ZM105.344 241.832V244.328C104.496 244.856 103.272 245.12 101.672 245.12C99.7361 245.12 98.2081 244.544 97.0881 243.392C95.9681 242.24 95.4081 240.752 95.4081 238.928C95.4081 236.992 95.9361 235.472 96.9921 234.368C98.0481 233.264 99.3681 232.712 100.952 232.712C102.536 232.712 103.792 233.192 104.72 234.152C105.648 235.112 106.112 236.512 106.112 238.352C106.112 238.8 106.056 239.376 105.944 240.08H98.3121C98.5201 240.96 98.9521 241.632 99.6081 242.096C100.28 242.56 101.112 242.792 102.104 242.792C103.384 242.792 104.464 242.472 105.344 241.832ZM119.92 245.192C118.08 245.192 116.64 244.616 115.6 243.464C114.576 242.312 114.064 240.84 114.064 239.048C114.064 237.192 114.6 235.664 115.672 234.464C116.744 233.248 118.16 232.64 119.92 232.64C121.792 232.64 123.24 233.232 124.264 234.416C125.288 235.584 125.8 237.072 125.8 238.88C125.8 240.72 125.28 242.232 124.24 243.416C123.216 244.6 121.776 245.192 119.92 245.192ZM119.92 234.992C119.008 234.992 118.304 235.368 117.808 236.12C117.328 236.872 117.088 237.816 117.088 238.952C117.088 240.072 117.336 241.008 117.832 241.76C118.328 242.512 119.032 242.888 119.944 242.888C120.888 242.888 121.6 242.52 122.08 241.784C122.56 241.048 122.8 240.112 122.8 238.976C122.8 237.808 122.568 236.856 122.104 236.12C121.64 235.368 120.912 234.992 119.92 234.992ZM143.069 232.832V234.92C143.757 233.432 145.005 232.688 146.813 232.688C148.029 232.688 148.989 233.056 149.693 233.792C150.397 234.528 150.749 235.568 150.749 236.912V245H147.869V237.512C147.869 236.712 147.677 236.112 147.293 235.712C146.909 235.296 146.389 235.088 145.733 235.088C144.981 235.088 144.349 235.384 143.837 235.976C143.325 236.552 143.069 237.384 143.069 238.472V245H140.189V232.832H143.069ZM163.143 227.6L160.359 231.656H157.935L160.119 227.6H163.143ZM161.295 232.832H164.199V245H161.295V243.008C160.655 244.416 159.407 245.12 157.551 245.12C156.319 245.12 155.359 244.768 154.671 244.064C153.983 243.36 153.639 242.36 153.639 241.064V232.832H156.519V240.392C156.519 241.16 156.703 241.744 157.071 242.144C157.455 242.544 157.975 242.744 158.631 242.744C159.463 242.744 160.111 242.464 160.575 241.904C161.055 241.344 161.295 240.496 161.295 239.36V232.832ZM170.21 232.832V234.752C170.898 233.376 172.042 232.688 173.642 232.688C175.418 232.688 176.57 233.456 177.098 234.992C177.418 234.256 177.898 233.688 178.538 233.288C179.178 232.888 179.906 232.688 180.722 232.688C181.954 232.688 182.906 233.064 183.578 233.816C184.25 234.552 184.586 235.608 184.586 236.984V245H181.682V237.536C181.682 235.904 181.058 235.088 179.81 235.088C179.186 235.088 178.626 235.36 178.13 235.904C177.65 236.448 177.41 237.304 177.41 238.472V245H174.506V237.536C174.506 235.904 173.882 235.088 172.634 235.088C172.01 235.088 171.45 235.36 170.954 235.904C170.458 236.448 170.21 237.304 170.21 238.472V245H167.33V232.832H170.21ZM194.876 237.92V237.56C194.844 236.776 194.628 236.152 194.228 235.688C193.844 235.208 193.276 234.968 192.524 234.968C191.836 234.968 191.236 235.224 190.724 235.736C190.228 236.232 189.908 236.96 189.764 237.92H194.876ZM196.844 241.832V244.328C195.996 244.856 194.772 245.12 193.172 245.12C191.236 245.12 189.708 244.544 188.588 243.392C187.468 242.24 186.908 240.752 186.908 238.928C186.908 236.992 187.436 235.472 188.492 234.368C189.548 233.264 190.868 232.712 192.452 232.712C194.036 232.712 195.292 233.192 196.22 234.152C197.148 235.112 197.612 236.512 197.612 238.352C197.612 238.8 197.556 239.376 197.444 240.08H189.812C190.02 240.96 190.452 241.632 191.108 242.096C191.78 242.56 192.612 242.792 193.604 242.792C194.884 242.792 195.964 242.472 196.844 241.832ZM203.139 232.832V234.992C203.699 233.488 204.723 232.736 206.211 232.736C206.547 232.736 206.819 232.76 207.027 232.808V235.592C206.659 235.432 206.251 235.352 205.803 235.352C205.019 235.352 204.379 235.672 203.883 236.312C203.387 236.952 203.139 237.752 203.139 238.712V245H200.235L200.259 232.832H203.139ZM213.928 245.192C212.088 245.192 210.648 244.616 209.608 243.464C208.584 242.312 208.072 240.84 208.072 239.048C208.072 237.192 208.608 235.664 209.68 234.464C210.752 233.248 212.168 232.64 213.928 232.64C215.8 232.64 217.248 233.232 218.272 234.416C219.296 235.584 219.808 237.072 219.808 238.88C219.808 240.72 219.288 242.232 218.248 243.416C217.224 244.6 215.784 245.192 213.928 245.192ZM213.928 234.992C213.016 234.992 212.312 235.368 211.816 236.12C211.336 236.872 211.096 237.816 211.096 238.952C211.096 240.072 211.344 241.008 211.84 241.76C212.336 242.512 213.04 242.888 213.952 242.888C214.896 242.888 215.608 242.52 216.088 241.784C216.568 241.048 216.808 240.112 216.808 238.976C216.808 237.808 216.576 236.856 216.112 236.12C215.648 235.368 214.92 234.992 213.928 234.992ZM233.476 242.696C234.34 242.696 235.06 242.368 235.636 241.712C236.212 241.04 236.5 240.072 236.5 238.808C236.5 237.576 236.196 236.656 235.588 236.048C234.98 235.424 234.284 235.112 233.5 235.112C232.668 235.112 231.964 235.456 231.388 236.144C230.828 236.816 230.548 237.76 230.548 238.976C230.548 240.08 230.828 240.976 231.388 241.664C231.948 242.352 232.644 242.696 233.476 242.696ZM236.5 228.032H239.38V245H236.5V243.104C235.668 244.48 234.436 245.168 232.804 245.168C231.204 245.168 229.932 244.56 228.988 243.344C228.06 242.128 227.596 240.656 227.596 238.928C227.596 237.008 228.084 235.488 229.06 234.368C230.052 233.232 231.316 232.664 232.852 232.664C234.436 232.664 235.652 233.344 236.5 234.704V228.032ZM247.702 245.192C245.862 245.192 244.422 244.616 243.382 243.464C242.358 242.312 241.846 240.84 241.846 239.048C241.846 237.192 242.382 235.664 243.454 234.464C244.526 233.248 245.942 232.64 247.702 232.64C249.574 232.64 251.022 233.232 252.046 234.416C253.07 235.584 253.582 237.072 253.582 238.88C253.582 240.72 253.062 242.232 252.022 243.416C250.998 244.6 249.558 245.192 247.702 245.192ZM247.702 234.992C246.79 234.992 246.086 235.368 245.59 236.12C245.11 236.872 244.87 237.816 244.87 238.952C244.87 240.072 245.118 241.008 245.614 241.76C246.11 242.512 246.814 242.888 247.726 242.888C248.67 242.888 249.382 242.52 249.862 241.784C250.342 241.048 250.582 240.112 250.582 238.976C250.582 237.808 250.35 236.856 249.886 236.12C249.422 235.368 248.694 234.992 247.702 234.992ZM269.289 233.216V235.76C268.489 235.28 267.489 235.04 266.289 235.04C265.793 235.04 265.401 235.152 265.113 235.376C264.841 235.584 264.705 235.856 264.705 236.192C264.705 236.32 264.721 236.44 264.753 236.552C264.801 236.664 264.873 236.776 264.969 236.888C265.081 236.984 265.185 237.072 265.281 237.152C265.377 237.232 265.513 237.32 265.689 237.416C265.865 237.496 266.017 237.568 266.145 237.632C266.273 237.696 266.449 237.776 266.673 237.872C266.897 237.968 267.073 238.048 267.201 238.112C268.049 238.528 268.721 238.992 269.217 239.504C269.713 240.016 269.961 240.68 269.961 241.496C269.961 242.632 269.553 243.52 268.737 244.16C267.921 244.8 266.833 245.12 265.473 245.12C263.969 245.12 262.753 244.872 261.825 244.376V241.736C262.897 242.456 264.057 242.816 265.305 242.816C265.833 242.816 266.241 242.72 266.529 242.528C266.833 242.32 266.985 242.04 266.985 241.688C266.985 241.48 266.937 241.296 266.841 241.136C266.745 240.96 266.561 240.792 266.289 240.632C266.017 240.472 265.801 240.36 265.641 240.296C265.497 240.216 265.201 240.08 264.753 239.888C264.705 239.872 264.665 239.856 264.633 239.84C264.617 239.824 264.585 239.808 264.537 239.792C264.489 239.776 264.449 239.76 264.417 239.744C262.641 238.944 261.753 237.792 261.753 236.288C261.753 235.168 262.177 234.288 263.025 233.648C263.873 233.008 264.937 232.688 266.217 232.688C267.449 232.688 268.473 232.864 269.289 233.216ZM279.579 237.92V237.56C279.547 236.776 279.331 236.152 278.931 235.688C278.547 235.208 277.979 234.968 277.227 234.968C276.539 234.968 275.939 235.224 275.427 235.736C274.931 236.232 274.611 236.96 274.467 237.92H279.579ZM281.547 241.832V244.328C280.699 244.856 279.475 245.12 277.875 245.12C275.939 245.12 274.411 244.544 273.291 243.392C272.171 242.24 271.611 240.752 271.611 238.928C271.611 236.992 272.139 235.472 273.195 234.368C274.251 233.264 275.571 232.712 277.155 232.712C278.739 232.712 279.995 233.192 280.923 234.152C281.851 235.112 282.315 236.512 282.315 238.352C282.315 238.8 282.259 239.376 282.147 240.08H274.515C274.723 240.96 275.155 241.632 275.811 242.096C276.483 242.56 277.315 242.792 278.307 242.792C279.587 242.792 280.667 242.472 281.547 241.832ZM292.498 232.832H295.402V245H292.498V243.008C291.858 244.416 290.61 245.12 288.754 245.12C287.522 245.12 286.562 244.768 285.874 244.064C285.186 243.36 284.842 242.36 284.842 241.064V232.832H287.722V240.392C287.722 241.16 287.906 241.744 288.274 242.144C288.658 242.544 289.178 242.744 289.834 242.744C290.666 242.744 291.314 242.464 291.778 241.904C292.258 241.344 292.498 240.496 292.498 239.36V232.832ZM69.3249 276.952C69.3569 278.104 69.7009 279.032 70.3569 279.736C71.0289 280.44 71.9329 280.792 73.0689 280.792C74.0609 280.792 74.9809 280.52 75.8289 279.976V282.472C74.9809 282.968 73.9249 283.216 72.6609 283.216C70.7889 283.216 69.2689 282.624 68.1009 281.44C66.9489 280.256 66.3729 278.76 66.3729 276.952C66.3889 275.176 66.9649 273.68 68.1009 272.464C69.2529 271.248 70.8209 270.64 72.8049 270.64C73.9889 270.64 74.9969 270.864 75.8289 271.312V273.856C75.0289 273.344 74.1169 273.088 73.0929 273.088C71.9729 273.088 71.0689 273.44 70.3809 274.144C69.6929 274.848 69.3409 275.784 69.3249 276.952ZM85.6144 275.92V275.56C85.5824 274.776 85.3664 274.152 84.9664 273.688C84.5824 273.208 84.0144 272.968 83.2624 272.968C82.5744 272.968 81.9744 273.224 81.4624 273.736C80.9664 274.232 80.6464 274.96 80.5024 275.92H85.6144ZM87.5824 279.832V282.328C86.7344 282.856 85.5104 283.12 83.9104 283.12C81.9744 283.12 80.4464 282.544 79.3264 281.392C78.2064 280.24 77.6464 278.752 77.6464 276.928C77.6464 274.992 78.1744 273.472 79.2304 272.368C80.2864 271.264 81.6064 270.712 83.1904 270.712C84.7744 270.712 86.0304 271.192 86.9584 272.152C87.8864 273.112 88.3504 274.512 88.3504 276.352C88.3504 276.8 88.2944 277.376 88.1824 278.08H80.5504C80.7584 278.96 81.1904 279.632 81.8464 280.096C82.5184 280.56 83.3504 280.792 84.3424 280.792C85.6224 280.792 86.7024 280.472 87.5824 279.832ZM91.1175 283V266.032H93.9975V283H91.1175ZM104.768 270.832H107.672V283H104.768V281.008C104.128 282.416 102.88 283.12 101.024 283.12C99.7919 283.12 98.8319 282.768 98.1439 282.064C97.4559 281.36 97.1119 280.36 97.1119 279.064V270.832H99.9919V278.392C99.9919 279.16 100.176 279.744 100.544 280.144C100.928 280.544 101.448 280.744 102.104 280.744C102.936 280.744 103.584 280.464 104.048 279.904C104.528 279.344 104.768 278.496 104.768 277.36V270.832ZM110.922 283V266.032H113.802V283H110.922ZM123.253 277.768H121.765C121.013 277.768 120.437 277.928 120.037 278.248C119.637 278.552 119.437 278.944 119.437 279.424C119.437 280.448 120.029 280.96 121.213 280.96C121.853 280.96 122.349 280.776 122.701 280.408C123.069 280.024 123.253 279.528 123.253 278.92V277.768ZM117.349 274.12V271.456C118.261 270.896 119.573 270.616 121.285 270.616C124.581 270.616 126.229 272.152 126.229 275.224V283H123.373V281.536C122.813 282.576 121.757 283.096 120.205 283.096C119.053 283.096 118.133 282.76 117.445 282.088C116.773 281.416 116.437 280.568 116.437 279.544C116.437 278.392 116.869 277.488 117.733 276.832C118.597 276.176 119.845 275.848 121.477 275.848H123.253V275.104C123.253 274.432 123.077 273.92 122.725 273.568C122.373 273.216 121.773 273.04 120.925 273.04C119.629 273.04 118.437 273.4 117.349 274.12ZM132.081 270.832V272.992C132.641 271.488 133.665 270.736 135.153 270.736C135.489 270.736 135.761 270.76 135.969 270.808V273.592C135.601 273.432 135.193 273.352 134.745 273.352C133.961 273.352 133.321 273.672 132.825 274.312C132.329 274.952 132.081 275.752 132.081 276.712V283H129.177L129.201 270.832H132.081ZM145.919 276.952C145.951 278.104 146.295 279.032 146.951 279.736C147.623 280.44 148.527 280.792 149.663 280.792C150.655 280.792 151.575 280.52 152.423 279.976V282.472C151.575 282.968 150.519 283.216 149.255 283.216C147.383 283.216 145.863 282.624 144.695 281.44C143.543 280.256 142.967 278.76 142.967 276.952C142.983 275.176 143.559 273.68 144.695 272.464C145.847 271.248 147.415 270.64 149.399 270.64C150.583 270.64 151.591 270.864 152.423 271.312V273.856C151.623 273.344 150.711 273.088 149.687 273.088C148.567 273.088 147.663 273.44 146.975 274.144C146.287 274.848 145.935 275.784 145.919 276.952ZM160.096 283.192C158.256 283.192 156.816 282.616 155.776 281.464C154.752 280.312 154.24 278.84 154.24 277.048C154.24 275.192 154.776 273.664 155.848 272.464C156.92 271.248 158.336 270.64 160.096 270.64C161.968 270.64 163.416 271.232 164.44 272.416C165.464 273.584 165.976 275.072 165.976 276.88C165.976 278.72 165.456 280.232 164.416 281.416C163.392 282.6 161.952 283.192 160.096 283.192ZM160.096 272.992C159.184 272.992 158.48 273.368 157.984 274.12C157.504 274.872 157.264 275.816 157.264 276.952C157.264 278.072 157.512 279.008 158.008 279.76C158.504 280.512 159.208 280.888 160.12 280.888C161.064 280.888 161.776 280.52 162.256 279.784C162.736 279.048 162.976 278.112 162.976 276.976C162.976 275.808 162.744 274.856 162.28 274.12C161.816 273.368 161.088 272.992 160.096 272.992ZM171.338 270.832V272.752C172.026 271.376 173.17 270.688 174.77 270.688C176.546 270.688 177.698 271.456 178.226 272.992C178.546 272.256 179.026 271.688 179.666 271.288C180.306 270.888 181.034 270.688 181.85 270.688C183.082 270.688 184.034 271.064 184.706 271.816C185.378 272.552 185.714 273.608 185.714 274.984V283H182.81V275.536C182.81 273.904 182.186 273.088 180.938 273.088C180.314 273.088 179.754 273.36 179.258 273.904C178.778 274.448 178.538 275.304 178.538 276.472V283H175.634V275.536C175.634 273.904 175.01 273.088 173.762 273.088C173.138 273.088 172.578 273.36 172.082 273.904C171.586 274.448 171.338 275.304 171.338 276.472V283H168.458V270.832H171.338ZM199.846 283.192C198.006 283.192 196.566 282.616 195.526 281.464C194.502 280.312 193.99 278.84 193.99 277.048C193.99 275.192 194.526 273.664 195.598 272.464C196.67 271.248 198.086 270.64 199.846 270.64C201.718 270.64 203.166 271.232 204.19 272.416C205.214 273.584 205.726 275.072 205.726 276.88C205.726 278.72 205.206 280.232 204.166 281.416C203.142 282.6 201.702 283.192 199.846 283.192ZM199.846 272.992C198.934 272.992 198.23 273.368 197.734 274.12C197.254 274.872 197.014 275.816 197.014 276.952C197.014 278.072 197.262 279.008 197.758 279.76C198.254 280.512 198.958 280.888 199.87 280.888C200.814 280.888 201.526 280.52 202.006 279.784C202.486 279.048 202.726 278.112 202.726 276.976C202.726 275.808 202.494 274.856 202.03 274.12C201.566 273.368 200.838 272.992 199.846 272.992ZM217.378 280.48H219.514C221.21 280.48 222.498 279.96 223.378 278.92C224.258 277.864 224.698 276.456 224.698 274.696C224.698 273.144 224.226 271.872 223.282 270.88C222.354 269.872 221.082 269.368 219.466 269.368H217.378V280.48ZM214.282 266.824H219.562C221.978 266.824 223.954 267.568 225.49 269.056C227.026 270.544 227.794 272.424 227.794 274.696C227.794 277.176 227.05 279.184 225.562 280.72C224.074 282.24 222.074 283 219.562 283H214.282V266.824ZM233.573 280.48H235.709C237.405 280.48 238.693 279.96 239.573 278.92C240.453 277.864 240.893 276.456 240.893 274.696C240.893 273.144 240.421 271.872 239.477 270.88C238.549 269.872 237.277 269.368 235.661 269.368H233.573V280.48ZM230.477 266.824H235.757C238.173 266.824 240.149 267.568 241.685 269.056C243.221 270.544 243.989 272.424 243.989 274.696C243.989 277.176 243.245 279.184 241.757 280.72C240.269 282.24 238.269 283 235.757 283H230.477V266.824ZM249.768 280.48H251.904C253.6 280.48 254.888 279.96 255.768 278.92C256.648 277.864 257.088 276.456 257.088 274.696C257.088 273.144 256.616 271.872 255.672 270.88C254.744 269.872 253.472 269.368 251.856 269.368H249.768V280.48ZM246.672 266.824H251.952C254.368 266.824 256.344 267.568 257.88 269.056C259.416 270.544 260.184 272.424 260.184 274.696C260.184 277.176 259.44 279.184 257.952 280.72C256.464 282.24 254.464 283 251.952 283H246.672V266.824ZM269.037 274.624C268.685 274.256 268.509 273.816 268.509 273.304C268.509 272.792 268.685 272.36 269.037 272.008C269.389 271.64 269.821 271.456 270.333 271.456C270.845 271.456 271.277 271.64 271.629 272.008C271.997 272.36 272.181 272.792 272.181 273.304C272.181 273.816 271.997 274.256 271.629 274.624C271.277 274.976 270.845 275.152 270.333 275.152C269.821 275.152 269.389 274.976 269.037 274.624ZM269.037 282.472C268.685 282.12 268.509 281.688 268.509 281.176C268.509 280.664 268.685 280.232 269.037 279.88C269.389 279.512 269.821 279.328 270.333 279.328C270.845 279.328 271.277 279.512 271.629 279.88C271.997 280.232 272.181 280.664 272.181 281.176C272.181 281.688 271.997 282.12 271.629 282.472C271.277 282.824 270.845 283 270.333 283C269.821 283 269.389 282.824 269.037 282.472Z" fill="#111C11"/>
<rect x="20" y="312" width="300" height="60" rx="20" fill="#E5E5E5"/>
<path d="M95.9754 352.92H94.5754C92.4421 350.2 91.3754 347.147 91.3754 343.76C91.3754 342.173 91.6487 340.6 92.1954 339.04C92.7421 337.48 93.4821 336.087 94.4154 334.86H95.8354C93.7287 337.753 92.6754 340.753 92.6754 343.86C92.6754 347.007 93.7754 350.027 95.9754 352.92ZM101.03 342.2L96.9301 335.52H98.3701L101.71 341.08L105.05 335.52H106.49L102.41 342.2L106.99 349H105.55L101.73 343.26L98.1101 349H96.6701L101.03 342.2ZM113.022 342.2L108.922 335.52H110.362L113.702 341.08L117.042 335.52H118.482L114.402 342.2L118.982 349H117.542L113.722 343.26L110.102 349H108.662L113.022 342.2ZM121.234 334.86C122.168 336.087 122.908 337.48 123.454 339.04C124.001 340.6 124.274 342.173 124.274 343.76C124.274 347.147 123.208 350.2 121.074 352.92H119.674C121.874 350.027 122.974 347.007 122.974 343.86C122.974 340.753 121.921 337.753 119.814 334.86H121.234ZM135.913 342.2L131.813 335.52H133.253L136.593 341.08L139.933 335.52H141.373L137.293 342.2L141.873 349H140.433L136.613 343.26L132.993 349H131.553L135.913 342.2ZM147.905 342.2L143.805 335.52H145.245L148.585 341.08L151.925 335.52H153.365L149.285 342.2L153.865 349H152.425L148.605 343.26L144.985 349H143.545L147.905 342.2ZM159.897 342.2L155.797 335.52H157.237L160.577 341.08L163.917 335.52H165.357L161.277 342.2L165.857 349H164.417L160.597 343.26L156.977 349H155.537L159.897 342.2ZM171.889 342.2L167.789 335.52H169.229L172.569 341.08L175.909 335.52H177.349L173.269 342.2L177.849 349H176.409L172.589 343.26L168.969 349H167.529L171.889 342.2ZM183.882 342.2L179.782 335.52H181.222L184.562 341.08L187.902 335.52H189.342L185.262 342.2L189.842 349H188.402L184.582 343.26L180.962 349H179.522L183.882 342.2ZM196.718 344.14V343.04H201.218V344.14H196.718ZM212.456 342.2L208.356 335.52H209.796L213.136 341.08L216.476 335.52H217.916L213.836 342.2L218.416 349H216.976L213.156 343.26L209.536 349H208.096L212.456 342.2ZM224.448 342.2L220.348 335.52H221.788L225.128 341.08L228.468 335.52H229.908L225.828 342.2L230.408 349H228.968L225.148 343.26L221.528 349H220.088L224.448 342.2ZM236.44 342.2L232.34 335.52H233.78L237.12 341.08L240.46 335.52H241.9L237.82 342.2L242.4 349H240.96L237.14 343.26L233.52 349H232.08L236.44 342.2ZM248.432 342.2L244.332 335.52H245.772L249.112 341.08L252.452 335.52H253.892L249.812 342.2L254.392 349H252.952L249.132 343.26L245.512 349H244.072L248.432 342.2Z" fill="#C4C4C4"/>
<g filter="url(#filter0_d_105_1175)">
<rect x="20" y="427" width="300" height="60" rx="20" fill="#C4C4C4" fill-opacity="0.88" shape-rendering="crispEdges"/>
<rect x="20" y="427" width="300" height="60" rx="20" stroke="black" stroke-opacity="0.38" shape-rendering="crispEdges"/>
</g>
<path d="M123.898 463.704H132.698V467H119.834V445.432H132.57V448.728H123.898V454.584H131.61V457.848H123.898V463.704ZM136.74 467V445.432H141.316L146.5 454.424C147.353 455.896 148.111 457.272 148.772 458.552C149.455 459.811 149.913 460.707 150.148 461.24L150.5 462.04C150.329 460.269 150.244 457.731 150.244 454.424V445.432H154.308V467H149.7L144.452 458.04C143.62 456.632 142.863 455.288 142.18 454.008C141.519 452.707 141.06 451.768 140.804 451.192L140.42 450.296C140.655 452.323 140.772 454.893 140.772 458.008V467H136.74ZM172.371 445.432V448.76H166.899V467H162.835V448.76H157.363V445.432H172.371ZM179.428 448.76V455.8H182.116C183.354 455.8 184.282 455.491 184.9 454.872C185.519 454.232 185.828 453.347 185.828 452.216C185.828 451.107 185.498 450.253 184.836 449.656C184.196 449.059 183.268 448.76 182.052 448.76H179.428ZM186.532 467L181.636 459.128H179.428V467H175.396V445.432H182.052C184.506 445.432 186.426 446.051 187.812 447.288C189.22 448.525 189.924 450.179 189.924 452.248C189.903 453.784 189.53 455.085 188.804 456.152C188.079 457.197 187.087 457.976 185.828 458.488L191.364 467H186.532ZM199.712 458.808H205.792L205.504 457.848C204.779 455.544 204.181 453.613 203.712 452.056C203.264 450.477 202.987 449.485 202.88 449.08L202.752 448.44C202.56 449.507 201.643 452.653 200 457.88L199.712 458.808ZM208.352 467L206.816 462.104H198.656L197.12 467H192.896L200.192 445.432H205.408L212.704 467H208.352ZM219.835 448.76V455.8H222.523C223.76 455.8 224.688 455.491 225.307 454.872C225.925 454.232 226.235 453.347 226.235 452.216C226.235 451.107 225.904 450.253 225.243 449.656C224.603 449.059 223.675 448.76 222.459 448.76H219.835ZM226.939 467L222.043 459.128H219.835V467H215.803V445.432H222.459C224.912 445.432 226.832 446.051 228.219 447.288C229.627 448.525 230.331 450.179 230.331 452.248C230.309 453.784 229.936 455.085 229.211 456.152C228.485 457.197 227.493 457.976 226.235 458.488L231.771 467H226.939Z" fill="#111C11"/>
</g>
<defs>
<filter id="filter0_d_105_1175" x="15.5" y="426.5" width="309" height="69" filterUnits="userSpaceOnUse" color-interpolation-filters="sRGB">
<feFlood flood-opacity="0" result="BackgroundImageFix"/>
<feColorMatrix in="SourceAlpha" type="matrix" values="0 0 0 0 0 0 0 0 0 0 0 0 0 0 0 0 0 0 127 0" result="hardAlpha"/>
<feOffset dy="4"/>
<feGaussianBlur stdDeviation="2"/>
<feComposite in2="hardAlpha" operator="out"/>
<feColorMatrix type="matrix" values="0 0 0 0 0 0 0 0 0 0 0 0 0 0 0 0 0 0 0.25 0"/>
<feBlend mode="normal" in2="BackgroundImageFix" result="effect1_dropShadow_105_1175"/>
<feBlend mode="normal" in="SourceGraphic" in2="effect1_dropShadow_105_1175" result="shape"/>
</filter>
<clipPath id="clip0_105_1175">
<rect width="340" height="650" fill="white"/>
</clipPath>
</defs>
</svg>
